<svg width="40" height="40" viewBox="0 0 40 40" fill="none" xmlns="http://www.w3.org/2000/svg">
<path fill-rule="evenodd" clip-rule="evenodd" d="M20 4C17.2015 3.99949 14.4519 4.73298 12.0255 6.12726C9.59904 7.52154 7.58076 9.52784 6.17205 11.9459C4.76335 14.364 4.0135 17.1092 3.99736 19.9077C3.98121 22.7061 4.69932 25.4598 6.08002 27.894C7.01324 26.6812 8.21288 25.6992 9.58619 25.024C10.9595 24.3487 12.4697 23.9984 14 24H26C27.5303 23.9984 29.0405 24.3487 30.4139 25.024C31.7872 25.6992 32.9868 26.6812 33.92 27.894C35.3007 25.4598 36.0188 22.7061 36.0027 19.9077C35.9865 17.1092 35.2367 14.364 33.828 11.9459C32.4193 9.52784 30.401 7.52154 27.9746 6.12726C25.5482 4.73298 22.7985 3.99949 20 4ZM35.886 32.152C38.5601 28.6659 40.0065 24.3935 40 20C40 8.954 31.046 0 20 0C8.95402 0 2.25065e-05 8.954 2.25065e-05 20C-0.00658037 24.3936 1.43983 28.666 4.11402 32.152L4.10402 32.188L4.81402 33.014C6.68979 35.207 9.01879 36.9672 11.6405 38.1733C14.2622 39.3793 17.1142 40.0026 20 40C24.0547 40.0075 28.0148 38.7758 31.35 36.47C32.7719 35.4876 34.0612 34.326 35.186 33.014L35.896 32.188L35.886 32.152ZM20 8C18.4087 8 16.8826 8.63214 15.7574 9.75736C14.6322 10.8826 14 12.4087 14 14C14 15.5913 14.6322 17.1174 15.7574 18.2426C16.8826 19.3679 18.4087 20 20 20C21.5913 20 23.1174 19.3679 24.2427 18.2426C25.3679 17.1174 26 15.5913 26 14C26 12.4087 25.3679 10.8826 24.2427 9.75736C23.1174 8.63214 21.5913 8 20 8Z" fill="white"/>
</svg>
