<svg width="48" height="48" viewBox="0 0 48 48" fill="none" xmlns="http://www.w3.org/2000/svg">
<path d="M22.8571 10.2858H12.5714C11.359 10.2858 10.1962 10.7674 9.33894 11.6247C8.48163 12.482 8 13.6448 8 14.8572V35.4286C8 36.641 8.48163 37.8038 9.33894 38.6611C10.1962 39.5184 11.359 40.0001 12.5714 40.0001H35.4286C36.641 40.0001 37.8038 39.5184 38.6611 38.6611C39.5184 37.8038 40 36.641 40 35.4286V25.1429" stroke="#262626" stroke-width="1.5" stroke-linecap="round" stroke-linejoin="round"/>
<path d="M35.4286 12.5715L37.6069 14.8572M40 7.92462C40.6093 8.55469 40.9467 9.39895 40.9395 10.2754C40.9322 11.1519 40.5808 11.9905 39.9611 12.6103L24 28.5715L17.1429 30.8572L19.4286 24.0001L35.3989 7.89491C35.9603 7.32914 36.7116 6.99167 37.5074 6.94777C38.3033 6.90386 39.0872 7.15663 39.7074 7.65719L40 7.92462Z" stroke="#262626" stroke-width="1.5" stroke-linecap="round" stroke-linejoin="round"/>
</svg>
