<svg width="72" height="72" viewBox="0 0 72 72" fill="none" xmlns="http://www.w3.org/2000/svg">
<path d="M33.75 49.5H45C46.1935 49.5 47.3381 49.0259 48.182 48.182C49.0259 47.3381 49.5 46.1935 49.5 45V42.75H42.75C42.1533 42.75 41.581 42.5129 41.159 42.091C40.7371 41.669 40.5 41.0967 40.5 40.5C40.5 39.9033 40.7371 39.331 41.159 38.909C41.581 38.4871 42.1533 38.25 42.75 38.25H49.5V31.5H42.75C42.1533 31.5 41.581 31.2629 41.159 30.841C40.7371 30.419 40.5 29.8467 40.5 29.25C40.5 28.6533 40.7371 28.081 41.159 27.659C41.581 27.2371 42.1533 27 42.75 27H49.5V20.25H42.75C42.1533 20.25 41.581 20.0129 41.159 19.591C40.7371 19.169 40.5 18.5967 40.5 18C40.5 17.4033 40.7371 16.831 41.159 16.409C41.581 15.9871 42.1533 15.75 42.75 15.75H49.5V13.5C49.5 12.3065 49.0259 11.1619 48.182 10.318C47.3381 9.47411 46.1935 9 45 9H27C25.8065 9 24.6619 9.47411 23.818 10.318C22.9741 11.1619 22.5 12.3065 22.5 13.5V15.75H29.25C29.8467 15.75 30.419 15.9871 30.841 16.409C31.2629 16.831 31.5 17.4033 31.5 18C31.5 18.5967 31.2629 19.169 30.841 19.591C30.419 20.0129 29.8467 20.25 29.25 20.25H22.5V27H29.25C29.8467 27 30.419 27.2371 30.841 27.659C31.2629 28.081 31.5 28.6533 31.5 29.25C31.5 29.8467 31.2629 30.419 30.841 30.841C30.419 31.2629 29.8467 31.5 29.25 31.5H22.5V38.25H29.25C29.8467 38.25 30.419 38.4871 30.841 38.909C31.2629 39.331 31.5 39.9033 31.5 40.5C31.5 41.0967 31.2629 41.669 30.841 42.091C30.419 42.5129 29.8467 42.75 29.25 42.75H22.5V45C22.5 46.1935 22.9741 47.3381 23.818 48.182C24.6619 49.0259 25.8065 49.5 27 49.5H33.75ZM38.25 54V63H51.75C52.3467 63 52.919 63.2371 53.341 63.659C53.7629 64.081 54 64.6533 54 65.25C54 65.8467 53.7629 66.419 53.341 66.841C52.919 67.2629 52.3467 67.5 51.75 67.5H20.25C19.6533 67.5 19.081 67.2629 18.659 66.841C18.2371 66.419 18 65.8467 18 65.25C18 64.6533 18.2371 64.081 18.659 63.659C19.081 63.2371 19.6533 63 20.25 63H33.75V54H27C24.6131 54 22.3239 53.0518 20.636 51.364C18.9482 49.6761 18 47.3869 18 45V13.5C18 11.1131 18.9482 8.82387 20.636 7.13604C22.3239 5.44821 24.6131 4.5 27 4.5H45C47.3869 4.5 49.6761 5.44821 51.364 7.13604C53.0518 8.82387 54 11.1131 54 13.5V45C54 47.3869 53.0518 49.6761 51.364 51.364C49.6761 53.0518 47.3869 54 45 54H38.25Z" fill="white"/>
</svg>
