<svg width="13" height="13" viewBox="0 0 13 13" fill="none" xmlns="http://www.w3.org/2000/svg">
<path d="M6.66683 0.333252C5.41422 0.333252 4.18973 0.704695 3.14822 1.40061C2.10671 2.09653 1.29495 3.08566 0.815595 4.24292C0.33624 5.40019 0.210819 6.67361 0.455192 7.90215C0.699565 9.1307 1.30276 10.2592 2.18849 11.1449C3.07422 12.0307 4.20271 12.6338 5.43126 12.8782C6.65981 13.1226 7.93323 12.9972 9.09049 12.5178C10.2478 12.0385 11.2369 11.2267 11.9328 10.1852C12.6287 9.14368 13.0002 7.9192 13.0002 6.66658C13.0002 5.83488 12.8363 5.01132 12.5181 4.24292C12.1998 3.47453 11.7333 2.77635 11.1452 2.18824C10.5571 1.60014 9.85889 1.13363 9.09049 0.815348C8.3221 0.497068 7.49854 0.333252 6.66683 0.333252ZM6.66683 9.83325C6.54157 9.83325 6.41912 9.79611 6.31497 9.72651C6.21082 9.65692 6.12964 9.55801 6.08171 9.44228C6.03377 9.32656 6.02123 9.19921 6.04567 9.07636C6.0701 8.9535 6.13042 8.84066 6.219 8.75208C6.30757 8.66351 6.42042 8.60319 6.54327 8.57875C6.66613 8.55431 6.79347 8.56686 6.9092 8.61479C7.02492 8.66273 7.12384 8.7439 7.19343 8.84805C7.26302 8.95221 7.30016 9.07465 7.30016 9.19992C7.30016 9.36789 7.23344 9.52898 7.11467 9.64775C6.99589 9.76652 6.8348 9.83325 6.66683 9.83325ZM7.30016 7.29992C7.30016 7.46789 7.23344 7.62898 7.11467 7.74775C6.99589 7.86652 6.8348 7.93325 6.66683 7.93325C6.49886 7.93325 6.33777 7.86652 6.219 7.74775C6.10022 7.62898 6.0335 7.46789 6.0335 7.29992V4.13325C6.0335 3.96528 6.10022 3.80419 6.219 3.68542C6.33777 3.56664 6.49886 3.49992 6.66683 3.49992C6.8348 3.49992 6.99589 3.56664 7.11467 3.68542C7.23344 3.80419 7.30016 3.96528 7.30016 4.13325V7.29992Z" fill="#FF0000"/>
</svg>
