<svg width="73" height="72" viewBox="0 0 73 72" fill="none" xmlns="http://www.w3.org/2000/svg">
<path d="M60.5 35.829C60.5 22.686 49.772 12 36.5 12C23.228 12 12.5 22.686 12.5 35.829C12.5 39.399 12.941 41.694 13.484 43.377C13.85 44.493 14.723 43.392 15.155 42.987C16.5724 41.6578 18.4504 40.9306 20.3933 40.9586C22.3362 40.9866 24.1925 41.7676 25.571 43.137C29.834 47.373 33.767 53.247 28.334 58.647C25.418 61.545 21.026 62.751 17.684 59.631C13.37 55.599 9.623 50.907 7.778 45.231C7.01 42.849 6.5 39.912 6.5 35.826C6.5 19.335 19.949 6 36.5 6C53.051 6 66.5 19.335 66.5 35.829C66.5 39.915 65.993 42.852 65.222 45.228C63.377 50.907 59.63 55.599 55.316 59.628C51.974 62.751 47.582 61.548 44.666 58.647C39.236 53.247 43.166 47.373 47.426 43.137C48.8047 41.7667 50.6615 40.9851 52.6052 40.9572C54.5488 40.9292 56.4274 41.6569 57.845 42.987C58.676 43.767 59.087 44.697 59.516 43.377C60.059 41.697 60.5 39.396 60.5 35.829Z" fill="white"/>
</svg>
