<svg width="190" height="190" viewBox="0 0 190 190" fill="none" xmlns="http://www.w3.org/2000/svg">
<path d="M52.2505 120.936C52.6497 121.579 52.89 122.24 52.9714 122.918C53.0528 123.595 53.002 124.242 52.819 124.857C52.627 125.478 52.3295 126.021 51.9265 126.484L50.9522 125.733C51.4948 125.07 51.7928 124.377 51.8462 123.653C51.8904 122.935 51.6989 122.232 51.2715 121.543C51.0016 121.108 50.6975 120.77 50.3591 120.528C50.006 120.282 49.6463 120.148 49.2801 120.124C48.9138 120.1 48.563 120.192 48.2276 120.4C47.7291 120.709 47.4282 121.084 47.325 121.525C47.2217 121.965 47.255 122.484 47.4249 123.082L48.0112 125.241C48.247 126.087 48.241 126.856 47.9933 127.55C47.74 128.234 47.3006 128.77 46.6752 129.158C46.1404 129.49 45.5875 129.651 45.0166 129.641C44.4365 129.637 43.8881 129.481 43.3713 129.174C42.8489 128.858 42.4077 128.41 42.0479 127.83C41.6711 127.222 41.4471 126.608 41.3756 125.987C41.2896 125.363 41.3238 124.771 41.4783 124.21C41.6328 123.65 41.8872 123.16 42.2413 122.739L43.2125 123.455C42.7492 124.043 42.5068 124.664 42.4854 125.318C42.4583 125.962 42.636 126.593 43.0184 127.209C43.2601 127.599 43.5418 127.901 43.8633 128.116C44.1792 128.321 44.5147 128.427 44.8697 128.433C45.2247 128.439 45.5744 128.335 45.9189 128.121C46.3358 127.862 46.6305 127.497 46.8028 127.027C46.966 126.561 46.9605 126.006 46.7863 125.361L46.2669 123.461C46.0078 122.518 45.9738 121.704 46.1649 121.021C46.356 120.337 46.787 119.787 47.4577 119.371C48.0016 119.034 48.5691 118.876 49.1604 118.899C49.737 118.918 50.2977 119.103 50.8427 119.456C51.382 119.799 51.8512 120.292 52.2505 120.936Z" fill="white"/>
<path d="M46.0107 105.849C46.2064 106.669 46.2408 107.456 46.1138 108.21C45.9764 108.966 45.7039 109.662 45.2962 110.297C44.8756 110.924 44.3356 111.464 43.6763 111.917C43.0169 112.371 42.2515 112.702 41.38 112.91C40.5085 113.118 39.6762 113.169 38.883 113.062C38.0899 112.955 37.3641 112.717 36.7057 112.348C36.0448 111.969 35.4874 111.471 35.0333 110.856C34.5689 110.243 34.2389 109.527 34.0432 108.707C33.8549 107.918 33.8265 107.18 33.958 106.49C34.0869 105.79 34.3237 105.175 34.6683 104.643C35 104.103 35.3873 103.681 35.8304 103.378L36.6226 104.423C36.0176 104.874 35.5847 105.449 35.3237 106.148C35.0499 106.838 35.0122 107.598 35.2104 108.428C35.4135 109.279 35.7967 109.988 36.3599 110.555C36.923 111.123 37.6124 111.507 38.4278 111.707C39.2329 111.909 40.1178 111.895 41.0827 111.665C42.0372 111.437 42.833 111.049 43.47 110.503C44.1071 109.956 44.5486 109.302 44.7947 108.541C45.0304 107.783 45.0467 106.979 44.8435 106.128C44.6453 105.298 44.2733 104.636 43.7275 104.141C43.1791 103.636 42.5331 103.318 41.7894 103.189L42.0242 101.899C42.546 101.972 43.0821 102.173 43.6322 102.502C44.1696 102.823 44.6538 103.267 45.0851 103.833C45.5139 104.389 45.8224 105.061 46.0107 105.849Z" fill="white"/>
<path d="M44.3712 94.3839L32.4957 93.3549L32.8493 89.2742C32.9165 88.4984 33.1295 87.8317 33.4883 87.2739C33.8365 86.7152 34.3007 86.3004 34.8809 86.0295C35.4514 85.747 36.098 85.6371 36.8206 85.6997C37.6602 85.7724 38.3581 86.0577 38.9146 86.5556C39.4719 87.0429 39.8401 87.6744 40.0192 88.45L45.0894 86.0949L44.9596 87.5933L39.5914 90.0511L40.1601 89.2331L39.859 92.7081L44.4817 93.1086L44.3712 94.3839ZM38.6635 92.6045L38.9121 89.7353C38.9563 89.2252 38.8993 88.7706 38.7412 88.3714C38.5724 87.9714 38.3166 87.6494 37.9737 87.4056C37.6202 87.1608 37.1937 87.0168 36.6942 86.9735C36.1947 86.9302 35.7551 86.9992 35.3754 87.1805C34.9957 87.3617 34.6936 87.6353 34.4692 88.0013C34.2341 88.3664 34.0945 88.8039 34.0503 89.314L33.8017 92.1833L38.6635 92.6045Z" fill="white"/>
<path d="M48.9863 74.4726C48.6424 75.2301 48.1845 75.8775 47.6127 76.4145C47.0357 76.9374 46.387 77.334 45.6668 77.6045C44.9369 77.8706 44.168 77.9902 43.3603 77.9632C42.5428 77.9318 41.7261 77.7309 40.9103 77.3606C40.0944 76.9902 39.4104 76.5099 38.8584 75.9196C38.2967 75.3249 37.8806 74.6674 37.6101 73.9472C37.3299 73.2226 37.2015 72.4731 37.225 71.6989C37.2528 70.915 37.4387 70.1442 37.7826 69.3866C38.1265 68.6291 38.587 67.9888 39.1641 67.4659C39.7359 66.9289 40.3867 66.5274 41.1167 66.2613C41.8369 65.9908 42.6009 65.869 43.4086 65.896C44.2164 65.923 45.0282 66.1216 45.8441 66.492C46.6599 66.8624 47.3487 67.3449 47.9105 67.9396C48.4625 68.5299 48.8786 69.1874 49.1588 69.912C49.4293 70.6322 49.5555 71.3865 49.5373 72.1748C49.5139 72.9491 49.3302 73.715 48.9863 74.4726ZM47.8936 73.9765C48.1802 73.3452 48.3238 72.7192 48.3243 72.0986C48.3293 71.4683 48.209 70.869 47.9633 70.3006C47.7176 69.7322 47.3691 69.2226 46.9178 68.7717C46.4708 68.3111 45.9366 67.9397 45.315 67.6575C44.7031 67.3798 44.0766 67.2243 43.4357 67.191C42.7992 67.1481 42.1862 67.2212 41.5966 67.4104C41.007 67.5996 40.4766 67.9036 40.0054 68.3222C39.5386 68.7312 39.1619 69.2513 38.8753 69.8827C38.5887 70.514 38.4429 71.1448 38.4379 71.7751C38.4374 72.3957 38.5599 72.9902 38.8056 73.5586C39.0513 74.127 39.3976 74.6415 39.8445 75.1021C40.2958 75.5529 40.8275 75.9173 41.4394 76.195C42.061 76.4772 42.69 76.6398 43.3265 76.6827C43.9675 76.716 44.5827 76.638 45.1723 76.4488C45.7619 76.2596 46.2923 75.9556 46.7635 75.537C47.2347 75.1183 47.6114 74.5981 47.8936 73.9765Z" fill="white"/>
<path d="M55.746 62.9288L46.9996 54.8302L47.8693 53.891L55.7351 61.1743L59.3224 57.3001L60.2029 58.1154L55.746 62.9288Z" fill="white"/>
<path d="M65.3685 53.9014L59.0406 43.7997L60.1254 43.1202L65.8162 52.205L70.2908 49.4021L70.9278 50.419L65.3685 53.9014Z" fill="white"/>
<path d="M86.3136 45.3033L84.7708 34.6949L81.5091 35.1693L81.3364 33.9818L89.0948 32.8535L89.2675 34.041L86.0375 34.5107L87.5803 45.1191L86.3136 45.3033Z" fill="white"/>
<path d="M102.795 45.5164C101.976 45.3704 101.236 45.0867 100.574 44.6654C99.925 44.2354 99.3804 43.7049 98.9403 43.0739C98.5021 42.4323 98.1962 41.7169 98.0227 40.9275C97.8511 40.1277 97.8439 39.2867 98.0012 38.4046C98.1584 37.5225 98.4548 36.7411 98.8904 36.0603C99.3279 35.369 99.8621 34.8033 100.493 34.3632C101.126 33.9126 101.82 33.603 102.576 33.4344C103.343 33.2677 104.136 33.2573 104.955 33.4034C105.774 33.5494 106.508 33.8374 107.157 34.2673C107.819 34.6886 108.369 35.2201 108.807 35.8616C109.247 36.4926 109.554 37.2028 109.728 37.9922C109.901 38.7816 109.909 39.6173 109.752 40.4994C109.595 41.3815 109.297 42.1682 108.86 42.8595C108.424 43.5403 107.89 44.1059 107.257 44.5565C106.626 44.9966 105.926 45.3053 105.158 45.4825C104.402 45.6511 103.615 45.6624 102.795 45.5164ZM103.006 44.335C103.689 44.4567 104.331 44.4411 104.932 44.2883C105.544 44.1374 106.095 43.8726 106.585 43.4941C107.075 43.1156 107.483 42.6519 107.808 42.1032C108.144 41.5563 108.372 40.9468 108.492 40.2747C108.61 39.6132 108.606 38.9678 108.479 38.3385C108.364 37.7111 108.141 37.1352 107.812 36.6106C107.483 36.0861 107.058 35.6472 106.536 35.2941C106.024 34.9429 105.427 34.7064 104.744 34.5847C104.062 34.463 103.414 34.4777 102.802 34.6286C102.201 34.7814 101.655 35.0471 101.165 35.4256C100.675 35.8042 100.262 36.2669 99.9262 36.8138C99.6009 37.3625 99.3792 37.9677 99.2613 38.6292C99.1415 39.3013 99.1394 39.951 99.2551 40.5784C99.3813 41.2077 99.6089 41.7846 99.938 42.3091C100.267 42.8337 100.693 43.2725 101.215 43.6256C101.737 43.9787 102.334 44.2152 103.006 44.335Z" fill="white"/>
<path d="M126.312 56.2925C125.665 55.7526 125.167 55.1425 124.818 54.4621C124.475 53.7736 124.278 53.053 124.225 52.3005C124.187 51.5465 124.297 50.7907 124.554 50.0329C124.812 49.2751 125.227 48.5522 125.801 47.8643C126.375 47.1763 127.012 46.638 127.712 46.2492C128.411 45.8605 129.135 45.6172 129.884 45.5193C130.64 45.4283 131.385 45.4937 132.116 45.7154C132.855 45.929 133.548 46.3057 134.195 46.8456C134.817 47.365 135.282 47.9403 135.589 48.5715C135.904 49.2095 136.083 49.8447 136.124 50.477C136.181 51.108 136.123 51.6775 135.949 52.1854L134.706 51.8773C134.941 51.129 134.955 50.397 134.746 49.6812C134.538 48.9655 134.098 48.3274 133.426 47.767C132.755 47.2066 132.024 46.8674 131.233 46.7494C130.442 46.6314 129.66 46.736 128.887 47.0633C128.121 47.3824 127.42 47.9227 126.784 48.6844C126.155 49.4378 125.749 50.2242 125.566 51.0435C125.382 51.8628 125.419 52.6509 125.677 53.4077C125.941 54.1563 126.409 54.8108 127.081 55.3712C127.679 55.8701 128.324 56.1867 129.018 56.321C129.72 56.4621 130.398 56.4236 131.052 56.2056C131.714 55.9793 132.29 55.5713 132.782 54.9817L133.202 54.478L133.276 55.2893L129.664 52.2754L130.382 51.4155L134.534 54.8804L133.898 55.6421C133.399 56.2399 132.832 56.7039 132.195 57.034C131.565 57.3559 130.908 57.5439 130.224 57.598C129.54 57.6522 128.858 57.5698 128.179 57.3508C127.516 57.1305 126.893 56.7777 126.312 56.2925Z" fill="white"/>
<path d="M135.129 65.2471L145.263 58.9704L149.307 65.4995L148.287 66.1314L144.917 60.6905L141.394 62.8726L144.595 68.0414L143.575 68.6733L140.373 63.5044L136.823 65.7034L140.193 71.1442L139.173 71.7761L135.129 65.2471Z" fill="white"/>
<path d="M142.268 79.7769L152.568 76.8051L151.654 73.6383L152.807 73.3057L154.98 80.8384L153.827 81.171L152.922 78.035L142.623 81.0068L142.268 79.7769Z" fill="white"/>
<path d="M143.749 102.144C143.864 101.396 144.111 100.738 144.49 100.17C144.869 99.6028 145.329 99.1449 145.868 98.7964C146.418 98.4496 146.997 98.2314 147.604 98.1417L147.856 99.3461C147.012 99.4965 146.335 99.829 145.823 100.344C145.323 100.86 145.011 101.519 144.887 102.32C144.809 102.826 144.82 103.281 144.919 103.685C145.028 104.101 145.213 104.437 145.476 104.694C145.738 104.95 146.065 105.108 146.455 105.169C147.035 105.258 147.507 105.169 147.872 104.902C148.237 104.634 148.55 104.218 148.809 103.654L149.769 101.633C150.14 100.837 150.645 100.257 151.284 99.8916C151.922 99.5368 152.605 99.4155 153.332 99.5278C153.954 99.6238 154.478 99.8613 154.906 100.24C155.343 100.621 155.659 101.096 155.851 101.665C156.042 102.245 156.086 102.872 155.982 103.547C155.873 104.253 155.643 104.866 155.293 105.384C154.953 105.914 154.541 106.341 154.059 106.666C153.577 106.991 153.065 107.198 152.523 107.287L152.251 106.112C152.986 105.966 153.574 105.652 154.015 105.17C154.455 104.698 154.73 104.104 154.841 103.387C154.911 102.934 154.893 102.521 154.789 102.149C154.683 101.787 154.497 101.488 154.231 101.253C153.965 101.018 153.632 100.869 153.231 100.807C152.747 100.733 152.285 100.818 151.848 101.063C151.422 101.31 151.064 101.736 150.777 102.339L149.936 104.119C149.518 105.005 149.015 105.645 148.425 106.039C147.835 106.434 147.15 106.571 146.37 106.451C145.738 106.353 145.204 106.103 144.77 105.702C144.344 105.312 144.039 104.806 143.854 104.184C143.668 103.573 143.633 102.893 143.749 102.144Z" fill="white"/>
<path d="M140.264 114.812L149.98 119.342L151.373 116.355L152.461 116.862L149.148 123.968L148.06 123.46L149.44 120.502L139.724 115.972L140.264 114.812Z" fill="white"/>
<path d="M135.635 123.553L141.734 134.681L140.827 135.716L128.993 131.136L129.879 130.125L132.744 131.273L136.255 127.265L134.749 124.564L135.635 123.553ZM136.883 128.369L133.942 131.727L140.685 134.421L140.432 134.71L136.883 128.369Z" fill="white"/>
<path d="M124.12 135.113L130.346 145.279L126.853 147.418C126.188 147.825 125.526 148.049 124.864 148.092C124.207 148.143 123.598 148.016 123.035 147.71C122.469 147.419 121.997 146.964 121.618 146.346C121.178 145.627 120.993 144.896 121.063 144.153C121.124 143.415 121.413 142.744 121.931 142.139L117.025 139.459L118.308 138.673L123.473 141.532L122.477 141.561L125.452 139.739L123.029 135.782L124.12 135.113ZM126.079 140.762L123.623 142.266C123.186 142.534 122.854 142.85 122.627 143.214C122.405 143.587 122.298 143.984 122.306 144.405C122.319 144.835 122.456 145.263 122.718 145.691C122.98 146.118 123.296 146.431 123.668 146.629C124.039 146.827 124.439 146.907 124.866 146.871C125.3 146.843 125.735 146.695 126.171 146.428L128.627 144.924L126.079 140.762Z" fill="white"/>
<path d="M108.676 142.575L111.498 152.917L114.678 152.049L114.994 153.207L107.431 155.271L107.115 154.113L110.264 153.254L107.441 142.912L108.676 142.575Z" fill="white"/>
<path d="M97.7543 144.634L97.6679 156.553L89.9881 156.498L89.9968 155.298L96.3967 155.344L96.4267 151.2L90.3469 151.156L90.3556 149.956L96.4354 150L96.4657 145.824L90.0658 145.778L90.0745 144.578L97.7543 144.634Z" fill="white"/>
<path d="M83.6877 143.636L80.0604 154.99L76.3263 153.798C75.1984 153.437 74.2926 152.89 73.6087 152.157C72.9216 151.433 72.4857 150.572 72.3012 149.572C72.1133 148.583 72.2044 147.509 72.5745 146.351C72.9413 145.203 73.4896 144.275 74.2195 143.567C74.9494 142.86 75.8056 142.406 76.7881 142.204C77.7706 142.003 78.8258 142.083 79.9536 142.443L83.6877 143.636ZM82.1032 144.389L79.5884 143.586C78.7146 143.307 77.8992 143.248 77.1422 143.409C76.382 143.581 75.7204 143.952 75.1575 144.522C74.5844 145.089 74.1501 145.835 73.8547 146.76C73.5594 147.684 73.4824 148.539 73.6238 149.323C73.7619 150.117 74.0926 150.8 74.6159 151.37C75.1359 151.95 75.8278 152.379 76.6914 152.654L79.2062 153.458L82.1032 144.389Z" fill="white"/>
<path d="M60.2488 136.075L59.4909 136.9L55.3679 133.111L56.1258 132.286L60.2488 136.075Z" fill="white"/>
<path d="M95 111L104 99M95 111L86 99M95 111L95 90M95 79L95 84" stroke="white" stroke-width="1.5" stroke-linecap="round" stroke-linejoin="round"/>
</svg>
