<svg width="49" height="48" viewBox="0 0 49 48" fill="none" xmlns="http://www.w3.org/2000/svg">
<path opacity="0.16" d="M24.5 28C26.7091 28 28.5 26.2091 28.5 24C28.5 21.7909 26.7091 20 24.5 20C22.2909 20 20.5 21.7909 20.5 24C20.5 26.2091 22.2909 28 24.5 28Z" fill="white"/>
<path d="M24.5 28C26.7091 28 28.5 26.2091 28.5 24C28.5 21.7909 26.7091 20 24.5 20C22.2909 20 20.5 21.7909 20.5 24C20.5 26.2091 22.2909 28 24.5 28Z" stroke="white" stroke-width="2" stroke-linecap="round" stroke-linejoin="round"/>
<path d="M36.5 22C38.7091 22 40.5 20.2091 40.5 18C40.5 15.7909 38.7091 14 36.5 14C34.2909 14 32.5 15.7909 32.5 18C32.5 20.2091 34.2909 22 36.5 22Z" stroke="white" stroke-width="2" stroke-linecap="round" stroke-linejoin="round"/>
<path d="M31.136 7.262C27.7472 5.91951 24.0306 5.63752 20.478 6.45334C16.9254 7.26915 13.7041 9.14433 11.2405 11.8308C8.77682 14.5172 7.18683 17.8884 6.68086 21.4982C6.17489 25.1079 6.77679 28.7863 8.40692 32.0466C10.037 35.3068 12.6186 37.9953 15.81 39.7564C19.0014 41.5175 22.6523 42.2682 26.2797 41.9092C29.907 41.5501 33.3399 40.0983 36.1241 37.7456C38.9084 35.393 40.9127 32.2506 41.872 28.734M40.5 18V4L44.5 8" stroke="white" stroke-width="2" stroke-linecap="round" stroke-linejoin="round"/>
</svg>
