<svg width="52" height="52" viewBox="0 0 52 52" fill="none" xmlns="http://www.w3.org/2000/svg">
<path d="M21.9976 12.037C22.108 12.2616 22.1808 12.5021 22.2135 12.7494L22.8168 21.7192L23.1162 26.2277C23.1193 26.6913 23.1921 27.152 23.3321 27.5948C23.6938 28.4539 24.5638 28.9999 25.5104 28.9618L39.9345 28.0184C40.5591 28.0081 41.1623 28.2417 41.6113 28.6678C41.9855 29.0229 42.2271 29.4874 42.3032 29.987L42.3287 30.2904C41.7319 38.5556 35.6615 45.4494 27.4134 47.229C19.1653 49.0086 10.7074 45.2493 6.63152 37.9923C5.45649 35.884 4.72256 33.5666 4.47281 31.1761C4.36847 30.4685 4.32253 29.7538 4.33543 29.0389C4.32255 20.1776 10.6328 12.5168 19.466 10.6699C20.5292 10.5044 21.5714 11.0672 21.9976 12.037Z" fill="#97A5EB"/>
<path opacity="0.4" d="M27.885 4.33512C37.7648 4.58647 46.0683 11.6909 47.6667 21.26L47.6514 21.3306L47.6078 21.4333L47.6139 21.7151C47.5912 22.0886 47.4471 22.4478 47.1986 22.7381C46.9398 23.0404 46.5862 23.2462 46.1968 23.3261L45.9593 23.3587L29.3176 24.437C28.7641 24.4916 28.2129 24.3131 27.8013 23.9459C27.4582 23.6399 27.2389 23.2269 27.1769 22.7818L26.0599 6.16431C26.0405 6.10812 26.0405 6.04721 26.0599 5.99102C26.0752 5.53297 26.2768 5.1 26.6198 4.78884C26.9627 4.47769 27.4184 4.31428 27.885 4.33512Z" fill="#FFCC91"/>
</svg>
