<svg width="101" height="31" viewBox="0 0 101 31" fill="none" xmlns="http://www.w3.org/2000/svg">
<g clip-path="url(#clip0_290_1403)">
<path d="M15.7132 0C7.03528 0 0 6.90971 0 15.433C0 23.9566 7.03528 30.8657 15.7132 30.8657C24.3921 30.8657 31.4266 23.9566 31.4266 15.433C31.4266 6.91029 24.3921 0.000775 15.713 0.000775L15.7132 0ZM22.9193 22.2588C22.8522 22.3667 22.7642 22.4606 22.6601 22.535C22.5561 22.6095 22.4381 22.6631 22.313 22.6927C22.1878 22.7223 22.058 22.7274 21.9308 22.7077C21.8037 22.6879 21.6817 22.6438 21.572 22.5777C17.8827 20.3643 13.2383 19.8631 7.76871 21.0905C7.51545 21.147 7.24968 21.1025 7.02981 20.9667C6.80994 20.8309 6.65397 20.6149 6.59617 20.3662C6.56736 20.2431 6.56358 20.1156 6.58502 19.991C6.60647 19.8664 6.65273 19.7472 6.72115 19.6402C6.78957 19.5332 6.87882 19.4405 6.98377 19.3675C7.08871 19.2944 7.20731 19.2424 7.33276 19.2144C13.3184 17.8711 18.4526 18.4495 22.5946 20.9357C22.7044 21.0016 22.8 21.0881 22.8757 21.1903C22.9515 21.2925 23.006 21.4084 23.0361 21.5313C23.0662 21.6542 23.0714 21.7817 23.0513 21.9065C23.0313 22.0314 22.9863 22.1512 22.9191 22.259L22.9193 22.2588ZM24.8426 18.0565C24.4878 18.6227 23.7336 18.8015 23.1574 18.4531C18.9339 15.9034 12.4954 15.1648 7.49964 16.6544C7.18867 16.7468 6.85305 16.7143 6.56644 16.564C6.27983 16.4137 6.06563 16.1579 5.97084 15.8526C5.87709 15.5472 5.91044 15.2178 6.06356 14.9365C6.21668 14.6553 6.47709 14.4451 6.78771 14.352C12.4944 12.6513 19.5887 13.4751 24.439 16.4025C25.0151 16.7508 25.1971 17.4917 24.8424 18.0567L24.8426 18.0565ZM25.0076 13.6807C19.9436 10.7264 11.5878 10.4548 6.7526 11.8962C5.97616 12.1276 5.15514 11.6971 4.92 10.9345C4.80688 10.5681 4.8465 10.1726 5.03016 9.83497C5.21382 9.4973 5.52649 9.24508 5.89943 9.13376C11.4499 7.47875 20.677 7.79844 26.5076 11.1982C26.6737 11.2947 26.8189 11.4225 26.9347 11.5743C27.0505 11.726 27.1347 11.8987 27.1824 12.0824C27.2302 12.2661 27.2406 12.4573 27.213 12.645C27.1854 12.8327 27.1204 13.0132 27.0216 13.1762C26.609 13.862 25.7045 14.0881 25.0084 13.6809L25.0076 13.6807ZM42.7504 14.2468C40.0372 13.6113 39.5551 13.1655 39.5551 12.2283C39.5551 11.3429 40.4032 10.7471 41.6659 10.7471C42.8893 10.7471 44.1015 11.1997 45.3737 12.1311C45.4111 12.1592 45.4599 12.1704 45.5068 12.163C45.5304 12.1597 45.5531 12.1517 45.5735 12.1395C45.5938 12.1273 45.6114 12.1111 45.6252 12.0919L46.9498 10.2579C46.976 10.2216 46.9871 10.1768 46.9808 10.1327C46.9745 10.0886 46.9514 10.0485 46.9161 10.0206C45.4019 8.82764 43.6981 8.24774 41.7053 8.24774C38.7763 8.24774 36.7293 9.97425 36.7293 12.4448C36.7293 15.0939 38.4948 16.032 41.5459 16.7561C44.1409 17.3433 44.5799 17.8353 44.5799 18.7149C44.5799 19.6898 43.6941 20.2961 42.2683 20.2961C40.6847 20.2961 39.3918 19.771 37.947 18.5434C37.911 18.5136 37.8647 18.4985 37.8176 18.5012C37.7941 18.5028 37.7713 18.5089 37.7503 18.5193C37.7293 18.5298 37.7107 18.5442 37.6955 18.5618L36.2095 20.2978C36.1796 20.3326 36.1647 20.3775 36.1679 20.4229C36.1711 20.4683 36.1921 20.5107 36.2265 20.5412C37.9076 22.0156 39.9753 22.7933 42.2081 22.7933C45.3644 22.7933 47.4039 21.0996 47.4039 18.4772C47.4094 16.2643 46.0605 15.0389 42.7561 14.2493L42.7504 14.2468ZM54.5453 11.6188C53.1775 11.6188 52.0554 12.1481 51.1285 13.2327V12.0121C51.1285 11.9156 51.0496 11.8372 50.9521 11.8372H48.5222C48.4753 11.8374 48.4303 11.856 48.3972 11.8887C48.3642 11.9215 48.3457 11.9658 48.3459 12.0119V25.5762C48.3459 25.6719 48.4248 25.7511 48.5222 25.7511H50.9521C50.9991 25.7508 51.044 25.7322 51.0771 25.6994C51.1101 25.6666 51.1286 25.6223 51.1285 25.5762V21.2949C52.0554 22.314 53.1775 22.8135 54.5451 22.8135C57.0879 22.8135 59.6622 20.8915 59.6622 17.2168C59.666 13.5414 57.0914 11.6186 54.5471 11.6186L54.5453 11.6188ZM56.8364 17.2168C56.8364 19.0871 55.6636 20.3937 53.9823 20.3937C52.3218 20.3937 51.0683 19.0282 51.0683 17.2168C51.0683 15.4053 52.3218 14.0399 53.9823 14.0399C55.6354 14.0399 56.8364 15.3756 56.8364 17.2168ZM66.2576 11.6188C62.9834 11.6188 60.4183 14.0949 60.4183 17.2569C60.4183 20.3846 62.9664 22.8338 66.2181 22.8338C69.5036 22.8338 72.0761 20.3662 72.0761 17.2168C72.0761 14.0781 69.5206 11.6194 66.2576 11.6194V11.6188ZM66.2576 20.4121C64.5163 20.4121 63.2029 19.0373 63.2029 17.2159C63.2029 15.3861 64.4713 14.0581 66.2181 14.0581C67.9706 14.0581 69.2915 15.4324 69.2915 17.2558C69.2915 19.0853 68.0156 20.4121 66.2576 20.4121ZM79.0674 11.8372H76.3937V9.15275C76.3937 9.05646 76.3148 8.97799 76.2173 8.97799H73.7872C73.74 8.97809 73.6948 8.99652 73.6614 9.02926C73.628 9.062 73.6091 9.1064 73.6089 9.15275V11.8372H72.4419C72.3949 11.8374 72.3499 11.856 72.3169 11.8887C72.2838 11.9215 72.2653 11.9658 72.2655 12.0119V14.0626C72.2653 14.1087 72.2838 14.153 72.3169 14.1858C72.3499 14.2186 72.3949 14.2372 72.4419 14.2375H73.6089V19.5443C73.6089 21.6876 74.6954 22.7749 76.8401 22.7749C77.7106 22.7749 78.433 22.5978 79.1142 22.2183C79.1417 22.2035 79.1646 22.1816 79.1805 22.155C79.1964 22.1283 79.2046 22.098 79.2043 22.0672V20.1136C79.2042 20.084 79.1964 20.0549 79.1816 20.0292C79.1668 20.0034 79.1456 19.9818 79.1199 19.9663C79.0943 19.9502 79.0649 19.941 79.0345 19.9397C79.0042 19.9384 78.974 19.9449 78.9471 19.9588C78.48 20.1893 78.0278 20.2961 77.521 20.2961C76.7424 20.2961 76.3935 19.9477 76.3935 19.17V14.2387H79.0672C79.1142 14.2384 79.1592 14.2199 79.1923 14.1871C79.2253 14.1542 79.2438 14.1099 79.2436 14.0637V12.0131C79.2444 11.9902 79.2404 11.9674 79.232 11.9461C79.2236 11.9247 79.2108 11.9053 79.1945 11.8889C79.1782 11.8726 79.1587 11.8596 79.1372 11.8509C79.1156 11.8422 79.0925 11.8378 79.0692 11.8381L79.0674 11.8372ZM88.3817 11.8476V11.5179C88.3817 10.5479 88.7607 10.1155 89.6087 10.1155C90.1157 10.1155 90.5226 10.2143 90.9787 10.3635C91.0054 10.3723 91.0339 10.3747 91.0617 10.3705C91.0896 10.3663 91.116 10.3556 91.1388 10.3394C91.1616 10.3231 91.18 10.3017 91.1927 10.277C91.2053 10.2523 91.2118 10.2249 91.2115 10.1973L91.2113 8.18671C91.2118 8.14915 91.1997 8.11247 91.1771 8.08222C91.1544 8.05198 91.1223 8.02982 91.0856 8.01912C90.6053 7.87846 89.9898 7.73431 89.0666 7.73431C86.8243 7.73431 85.6366 8.97528 85.6366 11.3218V11.8267H84.4695C84.4223 11.8268 84.3771 11.8452 84.3437 11.878C84.3103 11.9107 84.2914 11.9551 84.2912 12.0015V14.0626C84.2912 14.1589 84.3721 14.2375 84.4695 14.2375H85.6366V22.4209C85.6366 22.5186 85.7174 22.5961 85.8149 22.5961H88.2428C88.3423 22.5961 88.4212 22.5186 88.4212 22.4209V14.2381H90.6897L94.1647 22.4209C93.7706 23.2798 93.3822 23.4511 92.8529 23.4511C92.4253 23.4511 91.9731 23.3259 91.5135 23.0772C91.4699 23.0555 91.4196 23.0509 91.3727 23.0642C91.3495 23.0719 91.3281 23.0842 91.31 23.1003C91.2919 23.1165 91.2775 23.1362 91.2675 23.1582L90.4439 24.9329C90.4249 24.9732 90.4223 25.0191 90.4366 25.0612C90.4509 25.1034 90.4811 25.1385 90.5209 25.1596C91.3801 25.6167 92.155 25.812 93.1139 25.812C94.9077 25.812 95.9003 24.9901 96.7728 22.7823L100.987 12.0865C100.998 12.0601 101.002 12.0314 100.999 12.003C100.996 11.9746 100.985 11.9475 100.968 11.9241C100.953 11.9007 100.931 11.8816 100.906 11.8683C100.881 11.8551 100.852 11.8481 100.824 11.8482H98.2945C98.2574 11.848 98.2212 11.8592 98.1909 11.8802C98.1607 11.9012 98.1378 11.931 98.1256 11.9654L95.5344 19.2328L92.6973 11.9606C92.6846 11.9276 92.662 11.8992 92.6325 11.8792C92.603 11.8591 92.568 11.8483 92.5322 11.8482H88.3817V11.8476ZM82.9816 11.8372H80.5516C80.5045 11.8374 80.4593 11.8558 80.426 11.8886C80.3926 11.9213 80.3738 11.9656 80.3735 12.0119V22.4209C80.3735 22.5186 80.4542 22.5961 80.5516 22.5961H82.9816C83.0792 22.5961 83.1599 22.5186 83.1599 22.4209V12.0127C83.16 11.9897 83.1554 11.9669 83.1465 11.9456C83.1375 11.9243 83.1244 11.905 83.1078 11.8887C83.0912 11.8725 83.0715 11.8596 83.0499 11.8508C83.0282 11.8421 83.005 11.8376 82.9816 11.8377V11.8372ZM81.7806 7.09726C80.818 7.09726 80.0376 7.86257 80.0376 8.80768C80.0375 9.03251 80.0826 9.25514 80.1702 9.46286C80.2578 9.67057 80.3862 9.85931 80.548 10.0183C80.7099 10.1773 80.9021 10.3034 81.1135 10.3894C81.325 10.4754 81.5517 10.5197 81.7806 10.5197C82.7433 10.5197 83.5219 9.75357 83.5219 8.80768C83.5218 8.35411 83.3383 7.91915 83.0118 7.59841C82.6852 7.27767 82.2424 7.09741 81.7806 7.09726Z" fill="white"/>
</g>
<defs>
<clipPath id="clip0_290_1403">
<rect width="101" height="31" fill="white"/>
</clipPath>
</defs>
</svg>
